<svg width="24" height="24" viewBox="0 0 24 24" fill="none" xmlns="http://www.w3.org/2000/svg">
<g clip-path="url(#clip0_60401_13)">
<path d="M12.326 -0.000488281C5.747 0.000511719 2.25 4.21551 2.25 8.81151C2.25 10.9425 3.441 13.6015 5.348 14.4445C5.892 14.6895 5.82 14.3905 6.288 12.6005C6.325 12.4515 6.306 12.3225 6.186 12.1835C3.46 9.03051 5.654 2.54851 11.937 2.54851C21.03 2.54851 19.331 15.1305 13.519 15.1305C12.021 15.1305 10.905 13.9545 11.258 12.4995C11.686 10.7665 12.524 8.90351 12.524 7.65451C12.524 4.50651 7.834 4.97351 7.834 9.14451C7.834 10.4335 8.29 11.3035 8.29 11.3035C8.29 11.3035 6.781 17.3995 6.501 18.5385C6.027 20.4665 6.565 23.5875 6.612 23.8565C6.641 24.0045 6.807 24.0515 6.9 23.9295C7.049 23.7345 8.873 21.1325 9.384 19.2515C9.57 18.5665 10.333 15.7865 10.333 15.7865C10.836 16.6945 12.286 17.4545 13.831 17.4545C18.427 17.4545 21.749 13.4145 21.749 8.40151C21.733 3.59551 17.62 -0.000488281 12.326 -0.000488281V-0.000488281Z" fill="white"/>
</g>
<defs>
<clipPath id="clip0_60401_13">
<rect width="24" height="24" fill="white" transform="translate(0 -0.000488281)"/>
</clipPath>
</defs>
</svg>
