<svg width="24" height="24" viewBox="0 0 24 24" fill="none" xmlns="http://www.w3.org/2000/svg">
<g clip-path="url(#clip0_60401_17)">
<path d="M23.9766 7.05558C23.9204 5.78036 23.7142 4.90367 23.4187 4.144C23.114 3.33763 22.6452 2.61568 22.0309 2.01553C21.4307 1.40604 20.704 0.932433 19.907 0.632448C19.1429 0.337041 18.2708 0.130824 16.9956 0.0745996C15.7109 0.0136136 15.303 -0.000488281 12.0446 -0.000488281C8.78613 -0.000488281 8.37827 0.0136136 7.0983 0.069838C5.82309 0.126062 4.94639 0.332462 4.1869 0.627686C3.38035 0.932433 2.65841 1.40127 2.05825 2.01553C1.44876 2.61568 0.975341 3.34239 0.675172 4.13942C0.379766 4.90367 0.173549 5.7756 0.117324 7.05082C0.0563382 8.33555 0.0422363 8.74341 0.0422363 12.0019C0.0422363 15.2603 0.0563382 15.6682 0.112563 16.9481C0.168787 18.2233 0.375187 19.1 0.670594 19.8597C0.975341 20.6661 1.44876 21.388 2.05825 21.9882C2.65841 22.5977 3.38511 23.0713 4.18214 23.3713C4.94639 23.6667 5.81833 23.8729 7.09372 23.9291C8.37351 23.9855 8.78155 23.9994 12.04 23.9994C15.2984 23.9994 15.7063 23.9855 16.9863 23.9291C18.2615 23.8729 19.1382 23.6667 19.8977 23.3713C21.5106 22.7477 22.7858 21.4725 23.4094 19.8597C23.7046 19.0955 23.911 18.2233 23.9673 16.9481C24.0235 15.6682 24.0376 15.2603 24.0376 12.0019C24.0376 8.74341 24.0328 8.33555 23.9766 7.05558ZM21.8153 16.8544C21.7637 18.0265 21.5668 18.6594 21.4027 19.0814C20.9994 20.1269 20.1696 20.9567 19.1241 21.36C18.7021 21.5241 18.0646 21.721 16.8971 21.7724C15.6312 21.8288 15.2516 21.8428 12.0493 21.8428C8.84712 21.8428 8.4627 21.8288 7.20141 21.7724C6.0293 21.721 5.39637 21.5241 4.97441 21.36C4.45411 21.1677 3.9805 20.863 3.59609 20.4644C3.19758 20.0753 2.89283 19.6064 2.70053 19.0861C2.53644 18.6642 2.33956 18.0265 2.2881 16.8591C2.23169 15.5933 2.21777 15.2134 2.21777 12.0112C2.21777 8.80897 2.23169 8.42456 2.2881 7.16345C2.33956 5.99134 2.53644 5.35841 2.70053 4.93645C2.89283 4.41596 3.19758 3.94254 3.60085 3.55795C3.98984 3.15943 4.45869 2.85468 4.97917 2.66257C5.40113 2.49847 6.03883 2.3016 7.20617 2.24995C8.47204 2.19373 8.85188 2.17963 12.0539 2.17963C15.2609 2.17963 15.6406 2.19373 16.9018 2.24995C18.074 2.3016 18.7069 2.49847 19.1288 2.66257C19.6491 2.85468 20.1228 3.15943 20.5072 3.55795C20.9057 3.94712 21.2104 4.41596 21.4027 4.93645C21.5668 5.35841 21.7637 5.99592 21.8153 7.16345C21.8716 8.42932 21.8857 8.80897 21.8857 12.0112C21.8857 15.2134 21.8716 15.5885 21.8153 16.8544Z" fill="white"/>
<path d="M12.0444 5.83667C8.64074 5.83667 5.87915 8.59807 5.87915 12.0019C5.87915 15.4058 8.64074 18.1672 12.0444 18.1672C15.4483 18.1672 18.2097 15.4058 18.2097 12.0019C18.2097 8.59807 15.4483 5.83667 12.0444 5.83667ZM12.0444 16.0012C9.83628 16.0012 8.04516 14.2103 8.04516 12.0019C8.04516 9.79362 9.83628 8.00268 12.0444 8.00268C14.2527 8.00268 16.0437 9.79362 16.0437 12.0019C16.0437 14.2103 14.2527 16.0012 12.0444 16.0012Z" fill="white"/>
<path d="M19.893 5.59263C19.893 6.38746 19.2485 7.03194 18.4535 7.03194C17.6586 7.03194 17.0142 6.38746 17.0142 5.59263C17.0142 4.79761 17.6586 4.15332 18.4535 4.15332C19.2485 4.15332 19.893 4.79761 19.893 5.59263Z" fill="white"/>
</g>
<defs>
<clipPath id="clip0_60401_17">
<rect width="24" height="24" fill="white" transform="translate(0 -0.000488281)"/>
</clipPath>
</defs>
</svg>
