<svg width="103" height="58" viewBox="0 0 103 58" fill="none" xmlns="http://www.w3.org/2000/svg">
<path d="M59.1429 0.55652H59.1009C56.3629 0.562424 53.7104 1.52985 51.5894 3.29612C49.1975 1.15581 46.9315 3.85248e-05 44.8333 3.85248e-05C43.4082 -0.00384638 41.9971 0.286126 40.6847 0.85254C39.3722 1.41895 38.1856 2.25012 37.1959 3.29612C35.7713 4.83339 34.7842 6.73752 34.3406 8.80398C33.897 10.8704 34.0137 13.0211 34.6781 15.025C34.6781 15.025 34.6781 15.1106 34.7201 15.1106H40.0495L42.5673 11.0869C42.6846 10.8881 42.851 10.7243 43.0498 10.6116C43.2486 10.499 43.4729 10.4414 43.7003 10.4448C43.9125 10.4594 44.1183 10.5252 44.3007 10.6369C44.4831 10.7485 44.6369 10.9027 44.7494 11.0869L48.3163 18.0643L52.135 11.6433C52.2347 11.479 52.3695 11.3398 52.5294 11.236C52.6892 11.1323 52.87 11.0666 53.0582 11.0441C53.2467 11.0249 53.4371 11.0454 53.6175 11.1043C53.798 11.1632 53.9647 11.2593 54.1073 11.3865L57.5902 14.811C57.8266 15.0454 57.9634 15.365 57.9712 15.7012C57.9791 16.0374 57.8573 16.3633 57.6322 16.6089C57.5177 16.7347 57.3797 16.8358 57.2262 16.9062C57.0728 16.9767 56.9071 17.015 56.7388 17.019C56.5706 17.023 56.4033 16.9925 56.2468 16.9294C56.0904 16.8664 55.9479 16.7719 55.8278 16.6517L53.4778 14.3401L49.2814 21.3176C49.1777 21.5095 49.026 21.6701 48.8418 21.7829C48.6575 21.8956 48.4472 21.9566 48.2324 21.9596H48.1904C47.9629 21.9428 47.7434 21.8672 47.5525 21.7399C47.3616 21.6126 47.2057 21.4378 47.0993 21.2319L43.4905 14.2117L41.77 16.9941C41.6597 17.1839 41.5073 17.3447 41.3252 17.4637C41.143 17.5826 40.936 17.6564 40.7209 17.679H35.8951C36.2727 18.1071 36.7343 18.7492 37.2379 19.2629L50.7082 32.49C50.8239 32.6061 50.962 32.6964 51.1137 32.7553C51.2653 32.8143 51.4273 32.8405 51.5894 32.8324C51.9215 32.8276 52.2382 32.6891 52.4707 32.4472L65.983 19.1344C68.0026 17.0304 69.1337 14.2028 69.1337 11.2581C69.1337 8.31333 68.0026 5.4858 65.983 3.38173C65.0886 2.46448 64.0216 1.74131 62.8461 1.25578C61.6706 0.770249 60.4109 0.532388 59.1429 0.55652Z" fill="white"/>
<path d="M43.8383 0.55652H43.8803C46.6183 0.562424 49.2708 1.52985 51.3918 3.29612C53.7837 1.15581 56.0497 3.85248e-05 58.1479 3.85248e-05C59.573 -0.00384638 60.9841 0.286126 62.2965 0.85254C63.609 1.41895 64.7956 2.25012 65.7853 3.29612C67.2099 4.83339 68.197 6.73752 68.6406 8.80398C69.0842 10.8704 68.9675 13.0211 68.3031 15.025C68.3031 15.025 68.3031 15.1106 68.2611 15.1106H62.9317L60.4139 11.0869C60.2966 10.8881 60.1302 10.7243 59.9314 10.6116C59.7326 10.499 59.5083 10.4414 59.2809 10.4448C59.0687 10.4594 58.8629 10.5252 58.6805 10.6369C58.4981 10.7485 58.3443 10.9027 58.2318 11.0869L54.6649 18.0643L50.8462 11.6433C50.7465 11.479 50.6117 11.3398 50.4518 11.236C50.292 11.1323 50.1112 11.0666 49.923 11.0441C49.7345 11.0249 49.5441 11.0454 49.3637 11.1043C49.1832 11.1632 49.0165 11.2593 48.8739 11.3865L45.391 14.811C45.1546 15.0454 45.0178 15.365 45.01 15.7012C45.0021 16.0374 45.1239 16.3633 45.349 16.6089C45.4635 16.7347 45.6015 16.8358 45.755 16.9062C45.9084 16.9767 46.0741 17.015 46.2424 17.019C46.4106 17.023 46.5779 16.9925 46.7344 16.9294C46.8908 16.8664 47.0333 16.7719 47.1534 16.6517L49.5034 14.3401L53.6998 21.3176C53.8035 21.5095 53.9552 21.6701 54.1395 21.7829C54.3237 21.8956 54.534 21.9566 54.7488 21.9596H54.7908C55.0183 21.9428 55.2378 21.8672 55.4287 21.7399C55.6196 21.6126 55.7756 21.4378 55.8819 21.2319L59.4907 14.2117L61.2112 16.9941C61.3215 17.1839 61.4739 17.3447 61.656 17.4637C61.8382 17.5826 62.0452 17.6564 62.2603 17.679H67.0861C66.7085 18.1071 66.2469 18.7492 65.7433 19.2629L52.273 32.49C52.1573 32.6061 52.0192 32.6964 51.8675 32.7553C51.7159 32.8143 51.5539 32.8405 51.3918 32.8324C51.0597 32.8276 50.743 32.6891 50.5105 32.4472L36.9982 19.1344C34.9786 17.0304 33.8475 14.2028 33.8475 11.2581C33.8475 8.31333 34.9786 5.4858 36.9982 3.38173C37.8926 2.46448 38.9596 1.74131 40.1351 1.25578C41.3106 0.770249 42.5703 0.532388 43.8383 0.55652Z" fill="white"/>
<path d="M37.2117 13.8106C37.2117 16.0055 38.6104 18.1104 41.1001 19.6624C43.5898 21.2144 46.9666 22.0863 50.4876 22.0863C54.0085 22.0863 57.3853 21.2144 59.875 19.6624C62.3647 18.1104 63.7634 16.0055 63.7634 13.8106C63.7634 11.6158 62.3647 9.5108 59.875 7.95881C57.3853 6.40681 54.0085 5.53491 50.4876 5.53491C46.9666 5.53491 43.5898 6.40681 41.1001 7.95881C38.6104 9.5108 37.2117 11.6158 37.2117 13.8106Z" fill="white"/>
<path d="M57.9843 2.97323H57.9487C55.6252 2.97814 53.3742 3.78296 51.5743 5.25234C49.5445 3.47179 47.6215 2.51029 45.8409 2.51029C44.6316 2.50705 43.4341 2.74829 42.3203 3.21949C41.2065 3.6907 40.1995 4.38216 39.3597 5.25234C38.1507 6.53122 37.3131 8.1153 36.9366 9.83441C36.5602 11.5535 36.6592 13.3427 37.223 15.0098C37.223 15.0098 37.223 15.081 37.2586 15.081H41.7812L43.9179 11.7336C44.0175 11.5683 44.1587 11.4319 44.3274 11.3382C44.4961 11.2445 44.6864 11.1966 44.8794 11.1994C45.0595 11.2116 45.2341 11.2663 45.3889 11.3592C45.5437 11.4521 45.6742 11.5804 45.7697 11.7336L48.7966 17.5382L52.0373 12.1965C52.1219 12.0598 52.2363 11.944 52.372 11.8577C52.5076 11.7713 52.661 11.7168 52.8207 11.698C52.9807 11.682 53.1423 11.6991 53.2954 11.7481C53.4485 11.7971 53.59 11.877 53.711 11.9829L56.6667 14.8317C56.8673 15.0267 56.9834 15.2926 56.99 15.5723C56.9967 15.852 56.8934 16.1231 56.7023 16.3274C56.6052 16.4321 56.488 16.5162 56.3578 16.5748C56.2276 16.6334 56.087 16.6653 55.9442 16.6686C55.8014 16.6719 55.6595 16.6466 55.5267 16.5941C55.3939 16.5416 55.273 16.463 55.171 16.363L53.1768 14.44L49.6157 20.2446C49.5277 20.4044 49.3989 20.5379 49.2426 20.6317C49.0862 20.7256 48.9078 20.7763 48.7254 20.7788H48.6898C48.4968 20.7648 48.3105 20.7019 48.1485 20.596C47.9865 20.4901 47.8541 20.3447 47.7639 20.1734L44.7014 14.3332L43.2413 16.6479C43.1477 16.8058 43.0184 16.9396 42.8638 17.0385C42.7092 17.1375 42.5336 17.1988 42.351 17.2177H38.2557C38.5762 17.5738 38.968 18.108 39.3953 18.5353L50.8265 29.5391C50.9247 29.6357 51.0419 29.7109 51.1706 29.7599C51.2993 29.8089 51.4367 29.8308 51.5743 29.824C51.8561 29.82 52.1249 29.7048 52.3221 29.5035L63.7889 18.4285C65.5029 16.6781 66.4627 14.3258 66.4627 11.876C66.4627 9.42624 65.5029 7.07397 63.7889 5.32357C63.03 4.56049 62.1245 3.95888 61.1269 3.55496C60.1294 3.15103 59.0604 2.95316 57.9843 2.97323Z" fill="#C71010"/>
<path d="M93.7048 55.8361C93.7048 56.6021 92.9951 57.2234 92.1189 57.2234H11.2156C10.3399 57.2234 9.62964 56.6017 9.62964 55.8361C9.62964 55.07 10.3399 54.4492 11.2151 54.4492H92.1184C92.9951 54.4488 93.7048 55.07 93.7048 55.8361Z" fill="white"/>
<path d="M7.82607 37.3422C7.9182 37.1657 8.07369 37.0421 8.29252 36.9715C8.51135 36.9009 8.78777 36.8656 9.12177 36.8656C9.45578 36.8656 9.72068 36.895 9.91647 36.9538C10.1123 37.0127 10.262 37.0833 10.3656 37.1657C10.4693 37.248 10.5499 37.3657 10.6075 37.5187C10.6651 37.7188 10.6939 38.0248 10.6939 38.4367V48.2344C10.6939 48.5051 10.6853 48.7081 10.668 48.8435C10.6507 48.9788 10.596 49.1348 10.5039 49.3113C10.3426 49.6291 9.89344 49.7879 9.15632 49.7879C8.35011 49.7879 7.87789 49.5702 7.73968 49.1348C7.67058 48.9347 7.63603 48.6287 7.63603 48.2168V44.6331H3.05787V48.2344C3.05787 48.5051 3.04923 48.7081 3.03195 48.8435C3.01468 48.9788 2.95997 49.1348 2.86783 49.3113C2.70659 49.6291 2.25741 49.7879 1.5203 49.7879C0.714078 49.7879 0.241865 49.5702 0.103656 49.1348C0.0345521 48.9347 0 48.6287 0 48.2168V38.4191C0 38.1484 0.00863806 37.9454 0.0259141 37.81C0.0431902 37.6747 0.0978978 37.5187 0.190037 37.3422C0.35128 37.0244 0.800458 36.8656 1.53757 36.8656C2.34379 36.8656 2.82176 37.0833 2.97149 37.5187C3.02907 37.7188 3.05787 38.0248 3.05787 38.4367V42.038H7.63603V38.4191C7.63603 38.1484 7.64467 37.9454 7.66194 37.81C7.67922 37.6747 7.73393 37.5187 7.82607 37.3422ZM15.1338 44.8979V46.6809H20.4549C20.7198 46.6809 20.9185 46.6897 21.0509 46.7074C21.1834 46.7251 21.336 46.781 21.5087 46.8751C21.8197 47.0399 21.9752 47.4989 21.9752 48.2521C21.9752 49.0759 21.7621 49.5584 21.336 49.6997C21.1402 49.7703 20.8407 49.8056 20.4376 49.8056H13.5963C12.7901 49.8056 12.3178 49.582 12.1796 49.1348C12.1105 48.9465 12.076 48.6463 12.076 48.2344V38.4191C12.076 37.8188 12.1854 37.4099 12.4042 37.1921C12.6231 36.9744 13.0377 36.8656 13.6481 36.8656H20.4549C20.7198 36.8656 20.9185 36.8744 21.0509 36.892C21.1834 36.9097 21.336 36.9656 21.5087 37.0597C21.8197 37.2245 21.9752 37.6835 21.9752 38.4367C21.9752 39.2605 21.7621 39.7431 21.336 39.8843C21.1402 39.9549 20.8407 39.9902 20.4376 39.9902H15.1338V41.7732H18.5545C18.8194 41.7732 19.0181 41.7821 19.1505 41.7997C19.283 41.8174 19.4356 41.8733 19.6084 41.9674C19.9193 42.1322 20.0748 42.5912 20.0748 43.3444C20.0748 44.1682 19.856 44.6508 19.4183 44.792C19.2225 44.8626 18.9231 44.8979 18.52 44.8979H15.1338ZM30.4059 37.7835L35.0704 47.6342C35.2662 48.0344 35.3641 48.3345 35.3641 48.5345C35.3641 48.9582 35.0301 49.3407 34.3621 49.682C33.9705 49.8821 33.6624 49.9821 33.4379 49.9821C33.2133 49.9821 33.029 49.9292 32.885 49.8232C32.7411 49.7173 32.6374 49.6055 32.5741 49.4878C32.5107 49.3701 32.4214 49.1936 32.3063 48.9582L31.4079 47.0516H26.6224L25.7241 48.9582C25.6089 49.1936 25.5197 49.3643 25.4563 49.4702C25.393 49.5761 25.2893 49.685 25.1453 49.7968C25.0014 49.9086 24.8171 49.9645 24.5925 49.9645C24.3679 49.9645 24.0598 49.8644 23.6682 49.6644C23.0002 49.3348 22.6662 48.9582 22.6662 48.5345C22.6662 48.3345 22.7641 48.0344 22.9599 47.6342L27.6245 37.7659C27.7511 37.4952 27.9441 37.2775 28.2032 37.1127C28.4623 36.9479 28.7359 36.8656 29.0238 36.8656C29.6458 36.8656 30.1065 37.1715 30.4059 37.7835ZM30.164 44.4389L29.0065 42.0204L27.8663 44.4389H30.164ZM46.0062 47.6166C46.179 48.0402 46.2653 48.3462 46.2653 48.5345C46.2653 48.9818 45.9083 49.3584 45.1942 49.6644C44.8257 49.8291 44.5291 49.9115 44.3045 49.9115C44.0799 49.9115 43.8956 49.8556 43.7517 49.7438C43.6077 49.632 43.5012 49.5173 43.4321 49.3996C43.3169 49.176 42.8677 48.1109 42.0845 46.2043L41.549 46.2396H39.3722V48.2344C39.3722 48.5051 39.3636 48.7081 39.3463 48.8435C39.329 48.9788 39.2743 49.1348 39.1822 49.3113C39.0209 49.6291 38.5717 49.7879 37.8346 49.7879C37.0284 49.7879 36.5562 49.5702 36.418 49.1348C36.3489 48.9347 36.3143 48.6287 36.3143 48.2168V38.4191C36.3143 38.1484 36.323 37.9454 36.3402 37.81C36.3575 37.6747 36.4122 37.5187 36.5044 37.3422C36.6656 37.0244 37.1148 36.8656 37.8519 36.8656H41.5835C42.5971 36.8656 43.5818 37.2422 44.5377 37.9954C44.9984 38.3602 45.3785 38.8545 45.678 39.4783C45.9774 40.102 46.1271 40.7964 46.1271 41.5614C46.1271 42.8913 45.6952 43.9858 44.8314 44.845C45.0848 45.4687 45.4764 46.3926 46.0062 47.6166ZM39.3722 39.9902V43.1149H41.5835C41.9175 43.1149 42.2515 42.9854 42.5855 42.7265C42.9195 42.4676 43.0865 42.0792 43.0865 41.5614C43.0865 41.0436 42.9195 40.6522 42.5855 40.3874C42.2515 40.1226 41.906 39.9902 41.549 39.9902H39.3722ZM47.3537 36.8479H56.9592C57.3278 36.8479 57.5985 36.892 57.7712 36.9803C57.944 37.0686 58.0592 37.2069 58.1167 37.3952C58.1743 37.5835 58.2031 37.8306 58.2031 38.1366C58.2031 38.4426 58.1743 38.6868 58.1167 38.8692C58.0592 39.0516 57.9613 39.1782 57.823 39.2488C57.6157 39.3547 57.322 39.4077 56.942 39.4077H53.6422V48.2874C53.6422 48.5581 53.6336 48.7582 53.6163 48.8876C53.599 49.0171 53.5472 49.1671 53.4608 49.3378C53.3745 49.5084 53.2218 49.6291 53.003 49.6997C52.7842 49.7703 52.4963 49.8056 52.1392 49.8056C51.7822 49.8056 51.4971 49.7703 51.284 49.6997C51.071 49.6291 50.9212 49.5084 50.8349 49.3378C50.7485 49.1671 50.6967 49.0141 50.6794 48.8788C50.6621 48.7434 50.6535 48.5404 50.6535 48.2697V39.4077H47.3365C46.9679 39.4077 46.6972 39.3635 46.5245 39.2753C46.3517 39.187 46.2365 39.0487 46.179 38.8604C46.1214 38.6721 46.0926 38.425 46.0926 38.119C46.0926 37.813 46.1214 37.5688 46.179 37.3863C46.2365 37.2039 46.3345 37.0774 46.4727 37.0068C46.68 36.9009 46.9737 36.8479 47.3537 36.8479ZM68.1714 42.8678C68.8509 43.6916 69.1907 44.6155 69.1907 45.6394C69.1677 46.8163 68.7732 47.8019 68.0073 48.5963C67.2414 49.3907 66.3114 49.7879 65.2172 49.7879H60.6736C59.8674 49.7879 59.3952 49.5643 59.257 49.1171C59.1879 48.917 59.1533 48.611 59.1533 48.1991V38.4014C59.1533 38.119 59.1619 37.913 59.1792 37.7835C59.1965 37.6541 59.2512 37.5011 59.3433 37.3245C59.5046 37.0068 59.9538 36.8479 60.6909 36.8479H65.0444C66.104 36.8479 66.9909 37.2245 67.705 37.9777C68.4536 38.7427 68.8279 39.6607 68.8279 40.7317C68.8279 41.5084 68.6091 42.2205 68.1714 42.8678ZM66.1328 45.4628C66.1328 45.1804 66.1012 44.9568 66.0378 44.792C65.9745 44.6272 65.8679 44.5095 65.7182 44.4389C65.4879 44.3448 65.1654 44.2977 64.7508 44.2977C64.3361 44.2977 64.0252 44.2153 63.8178 44.0505C63.6105 43.8858 63.5069 43.5474 63.5069 43.0355C63.5069 42.5235 63.6134 42.1852 63.8265 42.0204C64.0396 41.8556 64.3937 41.7732 64.889 41.7732C65.3497 41.7732 65.6261 41.6497 65.7182 41.4025C65.7528 41.2731 65.77 41.0612 65.77 40.767C65.77 40.4728 65.675 40.2668 65.485 40.1491C65.295 40.0314 65.0099 39.9726 64.6298 39.9726H62.2112V46.6633H65.0444C65.77 46.6633 66.1328 46.2631 66.1328 45.4628ZM73.3715 44.8979V46.6809H78.6926C78.9575 46.6809 79.1561 46.6897 79.2886 46.7074C79.421 46.7251 79.5736 46.781 79.7464 46.8751C80.0574 47.0399 80.2128 47.4989 80.2128 48.2521C80.2128 49.0759 79.9998 49.5584 79.5736 49.6997C79.3778 49.7703 79.0784 49.8056 78.6753 49.8056H71.8339C71.0277 49.8056 70.5555 49.582 70.4173 49.1348C70.3482 48.9465 70.3137 48.6463 70.3137 48.2344V38.4191C70.3137 37.8188 70.4231 37.4099 70.6419 37.1921C70.8607 36.9744 71.2754 36.8656 71.8858 36.8656H78.6926C78.9575 36.8656 79.1561 36.8744 79.2886 36.892C79.421 36.9097 79.5736 36.9656 79.7464 37.0597C80.0574 37.2245 80.2128 37.6835 80.2128 38.4367C80.2128 39.2605 79.9998 39.7431 79.5736 39.8843C79.3778 39.9549 79.0784 39.9902 78.6753 39.9902H73.3715V41.7732H76.7922C77.0571 41.7732 77.2558 41.7821 77.3882 41.7997C77.5207 41.8174 77.6733 41.8733 77.846 41.9674C78.157 42.1322 78.3125 42.5912 78.3125 43.3444C78.3125 44.1682 78.0937 44.6508 77.656 44.792C77.4602 44.8626 77.1607 44.8979 76.7576 44.8979H73.3715ZM88.6436 37.7835L93.3081 47.6342C93.5039 48.0344 93.6018 48.3345 93.6018 48.5345C93.6018 48.9582 93.2678 49.3407 92.5998 49.682C92.2082 49.8821 91.9001 49.9821 91.6755 49.9821C91.4509 49.9821 91.2667 49.9292 91.1227 49.8232C90.9787 49.7173 90.8751 49.6055 90.8117 49.4878C90.7484 49.3701 90.6591 49.1936 90.5439 48.9582L89.6456 47.0516H84.8601L83.9618 48.9582C83.8466 49.1936 83.7573 49.3643 83.694 49.4702C83.6306 49.5761 83.527 49.685 83.383 49.7968C83.239 49.9086 83.0548 49.9645 82.8302 49.9645C82.6056 49.9645 82.2975 49.8644 81.9059 49.6644C81.2379 49.3348 80.9039 48.9582 80.9039 48.5345C80.9039 48.3345 81.0018 48.0344 81.1976 47.6342L85.8621 37.7659C85.9888 37.4952 86.1817 37.2775 86.4409 37.1127C86.7 36.9479 86.9736 36.8656 87.2615 36.8656C87.8834 36.8656 88.3441 37.1715 88.6436 37.7835ZM88.4017 44.4389L87.2442 42.0204L86.104 44.4389H88.4017ZM92.1506 36.8479H101.756C102.125 36.8479 102.395 36.892 102.568 36.9803C102.741 37.0686 102.856 37.2069 102.914 37.3952C102.971 37.5835 103 37.8306 103 38.1366C103 38.4426 102.971 38.6868 102.914 38.8692C102.856 39.0516 102.758 39.1782 102.62 39.2488C102.413 39.3547 102.119 39.4077 101.739 39.4077H98.4391V48.2874C98.4391 48.5581 98.4305 48.7582 98.4132 48.8876C98.3959 49.0171 98.3441 49.1671 98.2577 49.3378C98.1713 49.5084 98.0187 49.6291 97.7999 49.6997C97.5811 49.7703 97.2931 49.8056 96.9361 49.8056C96.579 49.8056 96.294 49.7703 96.0809 49.6997C95.8679 49.6291 95.7181 49.5084 95.6318 49.3378C95.5454 49.1671 95.4935 49.0141 95.4763 48.8788C95.459 48.7434 95.4503 48.5404 95.4503 48.2697V39.4077H92.1333C91.7648 39.4077 91.4941 39.3635 91.3214 39.2753C91.1486 39.187 91.0334 39.0487 90.9758 38.8604C90.9183 38.6721 90.8895 38.425 90.8895 38.119C90.8895 37.813 90.9183 37.5688 90.9758 37.3863C91.0334 37.2039 91.1313 37.0774 91.2695 37.0068C91.4769 36.9009 91.7706 36.8479 92.1506 36.8479Z" fill="white"/>
</svg>
