<?xml version="1.0" standalone="no"?>
<!DOCTYPE svg PUBLIC "-//W3C//DTD SVG 20010904//EN"
 "http://www.w3.org/TR/2001/REC-SVG-20010904/DTD/svg10.dtd">
<svg version="1.0" xmlns="http://www.w3.org/2000/svg"
 width="592.000000pt" height="592.000000pt" viewBox="0 0 592.000000 592.000000"
 preserveAspectRatio="xMidYMid meet">
<metadata>
Created by potrace 1.14, written by Peter Selinger 2001-2017
</metadata>
<g transform="translate(0.000000,592.000000) scale(0.100000,-0.100000)"
fill="#000000" stroke="none">
<path d="M1749 5596 c-2 -2 -29 -6 -59 -10 -30 -3 -66 -8 -80 -11 -13 -2 -42
-7 -64 -11 -22 -3 -44 -8 -48 -11 -5 -2 -20 -7 -34 -9 -39 -7 -185 -59 -257
-91 -190 -85 -436 -256 -570 -398 -16 -16 -48 -52 -70 -79 -23 -27 -48 -55
-55 -62 -7 -8 -11 -14 -7 -14 4 0 -1 -7 -9 -16 -24 -24 -76 -101 -76 -113 0
-6 -4 -11 -9 -11 -10 0 -146 -271 -156 -310 -3 -14 -10 -34 -15 -45 -23 -54
-65 -211 -75 -280 -2 -17 -7 -41 -9 -54 -23 -108 -23 -426 0 -543 2 -13 9 -50
15 -83 10 -58 34 -154 46 -185 3 -8 7 -19 8 -25 8 -33 41 -118 71 -184 60
-128 64 -135 84 -166 11 -16 27 -43 36 -60 9 -16 48 -72 86 -123 70 -95 150
-176 918 -932 232 -228 529 -521 660 -650 131 -129 353 -348 493 -486 148
-146 270 -258 293 -269 51 -24 139 -23 190 3 21 11 172 151 334 311 572 565
931 916 941 919 5 2 9 8 9 12 0 5 21 29 47 54 47 44 355 347 732 719 107 106
223 228 258 272 35 44 68 86 73 93 25 29 114 183 146 252 20 41 40 83 45 93
16 29 87 253 93 292 4 21 8 40 10 44 2 3 7 29 10 56 4 28 9 64 12 80 19 122
18 375 -1 488 -54 311 -144 545 -296 766 -24 35 -48 71 -54 79 -78 121 -327
341 -515 454 -112 68 -267 142 -322 154 -5 1 -10 3 -13 4 -3 1 -8 3 -12 5 -5
1 -15 5 -23 8 -31 13 -179 47 -264 60 -89 14 -357 16 -406 3 -14 -3 -38 -9
-55 -12 -42 -7 -108 -26 -120 -34 -5 -4 -23 -10 -40 -14 -109 -26 -452 -233
-585 -353 -53 -47 -96 -83 -101 -83 -4 0 -21 12 -37 28 -17 15 -42 36 -57 47
-14 11 -33 27 -43 36 -29 26 -138 106 -163 120 -13 6 -26 15 -29 19 -3 3 -32
22 -65 42 -179 107 -313 162 -500 204 -31 7 -310 15 -316 10z"/>
</g>
</svg>
